<svg xmlns="http://www.w3.org/2000/svg" width="612" height="510" viewBox="0 142.503 612 510" enable-background="new 0 142.503 612 510"><path fill="#fff" d="M406.146 270.217c-50.073-63.982-141.873-102-236.455-76.964-49.145 12.982-89.944 40.8-121.472 80.673C16.69 314.726 0 361.09 0 412.09c0 49.145 13.91 94.58 43.582 134.454 30.6 41.728 69.545 69.545 119.618 84.382 94.582 28.745 190.09-7.418 243.872-74.182-22.254-17.618-44.51-36.164-66.764-53.782-26.89 31.527-60.272 49.146-101.072 51.928-40.8 2.78-76.964-10.2-106.636-38.02-58.418-52.853-62.127-140.944-10.2-198.436 25.964-29.672 59.346-45.436 99.218-47.29 47.29-1.856 87.164 16.69 117.764 51.926l66.764-52.853zm61.2 228.108c.927-2.78 22.254-168.763 22.254-169.69h-61.2v56.563H311.563c-2.78 0-1.854 0-2.78-1.854-6.492-16.69-16.692-29.673-31.53-39.873-16.69-11.126-34.308-15.763-54.708-14.835-6.49 0-12.055 1.854-17.618 2.782-15.764 4.636-28.746 12.982-39.873 25.037-6.49 7.418-12.055 16.69-15.764 25.963 0 .927 0 1.854-.927 1.854h80.672v56.565h-80.672v.927c0 .928 0 .928.927 1.854 3.71 10.2 10.2 20.4 17.618 27.818 21.327 21.327 47.29 30.6 76.963 25.036 29.674-4.636 54.71-25.036 64.91-52.854.928-1.854 0-1.854 2.782-1.854H428.4v58.42c13.91-1.857 25.963-1.857 38.946-1.857zm82.527 0l22.254-169.69h-57.49l-22.255 169.69h57.49zm39.872-128.89c-4.636 33.382-10.2 65.837-14.836 99.22.926 0 .926-.93 1.853-.93 12.055-8.345 23.182-15.763 35.236-24.108.927-.927.927-.927.927-2.78v-51c0-.928 0-1.855-1.855-2.783-4.636-3.71-8.345-7.418-12.98-11.127-2.783-1.856-5.565-3.71-8.347-6.492zM406.146 270.217c-22.255 17.618-44.51 35.236-66.764 53.782-30.6-36.165-70.473-54.71-117.764-52.855-39.873 1.854-73.254 17.618-99.218 47.29-51.927 57.492-48.218 145.583 9.273 198.438 29.672 27.818 65.836 40.8 106.636 38.02 40.8-2.783 74.18-20.4 101.072-51.93 22.255 17.62 44.51 36.165 66.764 53.783-53.782 66.764-148.364 102.927-243.873 74.182-49.146-14.837-89.02-43.582-119.618-84.382C13.91 505.744 0 461.234 0 412.09c0-51 16.69-97.364 48.218-138.164 31.527-39.873 72.327-67.69 121.473-80.673 94.582-25.036 186.382 12.982 236.456 76.964zm61.2 228.108H428.4v-58.418H311.563c-2.78 0-1.854 0-2.78 1.854-10.2 27.82-35.238 48.22-64.91 52.855-29.673 4.637-55.637-3.71-76.964-25.036-8.347-8.347-13.91-17.62-17.62-27.82 0-.926 0-.926-.926-1.853v-.927h80.672v-56.564h-80.672c0-.927 0-1.854.927-1.854 3.71-9.273 9.273-18.545 15.765-25.963 11.127-12.056 24.11-20.4 39.873-25.038 5.563-1.854 12.055-2.782 17.618-2.782 19.473-1.854 38.018 3.71 54.71 14.836 14.835 10.2 25.036 23.182 31.527 39.873.927 1.853 0 1.853 2.78 1.853H428.4V326.78h61.2c.927 2.782-21.328 168.764-22.254 171.545zm82.527 0h-57.49l22.254-169.69h57.49c-7.418 55.636-14.836 112.2-22.254 169.69zm39.872-128.89c2.782 2.782 5.563 4.637 8.346 6.49 4.638 3.71 8.347 7.42 12.982 11.128.928.927.928 1.855.928 2.782v51c0 .927 0 1.854-.928 2.78-12.055 8.347-23.182 15.765-35.236 24.11 0 0-.927 0-1.854.928 5.563-33.382 10.2-65.837 15.763-99.218z"/></svg>