<svg xmlns="http://www.w3.org/2000/svg" viewBox="0 0 66 49" enable-background="new 0 0 66 49"><path fill="#fff" d="M43.8 9.1C38.4 2.2 28.5-1.9 18.3.8 13 2.2 8.6 5.2 5.2 9.5 1.8 13.9 0 18.9 0 24.4c0 5.3 1.5 10.2 4.7 14.5 3.3 4.5 7.5 7.5 12.9 9.1 10.2 3.1 20.5-.8 26.3-8-2.4-1.9-4.8-3.9-7.2-5.8-2.9 3.4-6.5 5.3-10.9 5.6-4.4.3-8.3-1.1-11.5-4.1C8 30 7.6 20.5 13.2 14.3c2.8-3.2 6.4-4.9 10.7-5.1C29 9 33.3 11 36.6 14.8l7.2-5.7zm6.6 24.6c.1-.3 2.4-18.2 2.4-18.3h-6.6v6.1H33.6c-.3 0-.2 0-.3-.2-.7-1.8-1.8-3.2-3.4-4.3-1.8-1.2-3.7-1.7-5.9-1.6-.7 0-1.3.2-1.9.3-1.7.5-3.1 1.4-4.3 2.7-.7.8-1.3 1.8-1.7 2.8 0 .1 0 .2-.1.2h8.7v6.1H16v.1c0 .1 0 .1.1.2.4 1.1 1.1 2.2 1.9 3 2.3 2.3 5.1 3.3 8.3 2.7 3.2-.5 5.9-2.7 7-5.7.1-.2 0-.2.3-.2h12.6v6.3c1.5-.2 2.8-.2 4.2-.2zm8.9 0l2.4-18.3h-6.2l-2.4 18.3h6.2zm4.3-13.9c-.5 3.6-1.1 7.1-1.6 10.7.1 0 .1-.1.2-.1 1.3-.9 2.5-1.7 3.8-2.6.1-.1.1-.1.1-.3V22c0-.1 0-.2-.2-.3-.5-.4-.9-.8-1.4-1.2-.3-.2-.6-.4-.9-.7z"/><path d="M43.8 9.1c-2.4 1.9-4.8 3.8-7.2 5.8C33.3 11 29 9 23.9 9.2c-4.3.2-7.9 1.9-10.7 5.1-5.6 6.2-5.2 15.7 1 21.4 3.2 3 7.1 4.4 11.5 4.1 4.4-.3 8-2.2 10.9-5.6 2.4 1.9 4.8 3.9 7.2 5.8-5.8 7.2-16 11.1-26.3 8-5.3-1.6-9.6-4.7-12.9-9.1C1.5 34.5 0 29.7 0 24.4c0-5.5 1.8-10.5 5.2-14.9C8.6 5.2 13 2.2 18.3.8c10.2-2.7 20.1 1.4 25.5 8.3zm6.6 24.6h-4.2v-6.3H33.6c-.3 0-.2 0-.3.2-1.1 3-3.8 5.2-7 5.7s-6-.4-8.3-2.7c-.9-.9-1.5-1.9-1.9-3 0-.1 0-.1-.1-.2v-.1h8.7v-6.1H16c0-.1 0-.2.1-.2.4-1 1-2 1.7-2.8 1.2-1.3 2.6-2.2 4.3-2.7.6-.2 1.3-.3 1.9-.3 2.1-.2 4.1.4 5.9 1.6 1.6 1.1 2.7 2.5 3.4 4.3.1.2 0 .2.3.2h12.6v-6.1h6.6c.1.3-2.3 18.2-2.4 18.5zm8.9 0h-6.2l2.4-18.3h6.2c-.8 6-1.6 12.1-2.4 18.3zm4.3-13.9c.3.3.6.5.9.7.5.4.9.8 1.4 1.2.1.1.1.2.1.3v5.5c0 .1 0 .2-.1.3-1.3.9-2.5 1.7-3.8 2.6 0 0-.1 0-.2.1.6-3.6 1.1-7.1 1.7-10.7z"/></svg>