<?xml version="1.0" encoding="utf-8"?>
<!-- Generator: Adobe Illustrator 17.1.0, SVG Export Plug-In . SVG Version: 6.00 Build 0)  -->
<!DOCTYPE svg PUBLIC "-//W3C//DTD SVG 1.1//EN" "http://www.w3.org/Graphics/SVG/1.1/DTD/svg11.dtd">
<svg version="1.1" id="Layer_1" xmlns="http://www.w3.org/2000/svg" xmlns:xlink="http://www.w3.org/1999/xlink" x="0px" y="0px"
	 viewBox="0 0 66 49" enable-background="new 0 0 66 49" xml:space="preserve">
<g>
	<path fill="#FFFFFF" d="M43.8,9.1C38.4,2.2,28.5-1.9,18.3,0.8C13,2.2,8.6,5.2,5.2,9.5C1.8,13.9,0,18.9,0,24.4
		c0,5.3,1.5,10.2,4.7,14.5c3.3,4.5,7.5,7.5,12.9,9.1c10.2,3.1,20.5-0.8,26.3-8c-2.4-1.9-4.8-3.9-7.2-5.8c-2.9,3.4-6.5,5.3-10.9,5.6
		c-4.4,0.3-8.3-1.1-11.5-4.1C8,30,7.6,20.5,13.2,14.3c2.8-3.2,6.4-4.9,10.7-5.1C29,9,33.3,11,36.6,14.8C39,12.9,41.4,11,43.8,9.1z
		 M50.4,33.7c0.1-0.3,2.4-18.2,2.4-18.3c-2.2,0-4.4,0-6.6,0c0,2,0,4.1,0,6.1c-0.1,0-0.2,0-0.3,0c-4.1,0-8.2,0-12.3,0
		c-0.3,0-0.2,0-0.3-0.2c-0.7-1.8-1.8-3.2-3.4-4.3c-1.8-1.2-3.7-1.7-5.9-1.6c-0.7,0-1.3,0.2-1.9,0.3c-1.7,0.5-3.1,1.4-4.3,2.7
		c-0.7,0.8-1.3,1.8-1.7,2.8c0,0.1,0,0.2-0.1,0.2c0,0,0,0,0.1,0c2.8,0,5.7,0,8.5,0c0,0,0,0,0.1,0c0,0,0,0,0,0c0,0,0,0,0,0
		c0,0,0,0,0,0c0,2,0,4,0,6.1c-2.9,0-5.8,0-8.7,0c0,0,0,0.1,0,0.1c0,0.1,0,0.1,0.1,0.2c0.4,1.1,1.1,2.2,1.9,3
		c2.3,2.3,5.1,3.3,8.3,2.7c3.2-0.5,5.9-2.7,7-5.7c0.1-0.2,0-0.2,0.3-0.2c4.1,0,8.2,0,12.3,0c0.1,0,0.2,0,0.3,0c0,0.3,0,0.6,0,0.9
		c0,0.3,0,0.6,0,0.9c0,0.3,0,0.6,0,0.9s0,0.6,0,0.9s0,0.6,0,0.9c0,0.3,0,0.6,0,0.9c0,0.3,0,0.6,0,0.9C47.7,33.7,49,33.7,50.4,33.7z
		 M59.3,33.7c0.8-6.1,1.6-12.2,2.4-18.3c-2.1,0-4.1,0-6.2,0c-0.8,6.1-1.6,12.2-2.4,18.3C55.2,33.7,57.2,33.7,59.3,33.7z M63.6,19.8
		c-0.5,3.6-1.1,7.1-1.6,10.7c0.1,0,0.1-0.1,0.2-0.1c1.3-0.9,2.5-1.7,3.8-2.6c0.1-0.1,0.1-0.1,0.1-0.3c0-1.8,0-3.7,0-5.5
		c0-0.1,0-0.2-0.2-0.3c-0.5-0.4-0.9-0.8-1.4-1.2C64.2,20.3,63.9,20.1,63.6,19.8z"/>
	<path d="M43.8,9.1c-2.4,1.9-4.8,3.8-7.2,5.8C33.3,11,29,9,23.9,9.2c-4.3,0.2-7.9,1.9-10.7,5.1C7.6,20.5,8,30,14.2,35.7
		c3.2,3,7.1,4.4,11.5,4.1c4.4-0.3,8-2.2,10.9-5.6c2.4,1.9,4.8,3.9,7.2,5.8c-5.8,7.2-16,11.1-26.3,8c-5.3-1.6-9.6-4.7-12.9-9.1
		C1.5,34.5,0,29.7,0,24.4c0-5.5,1.8-10.5,5.2-14.9C8.6,5.2,13,2.2,18.3,0.8C28.5-1.9,38.4,2.2,43.8,9.1z"/>
	<path d="M50.4,33.7c-1.4,0-2.8,0-4.2,0c0-0.3,0-0.6,0-0.9c0-0.3,0-0.6,0-0.9c0-0.3,0-0.6,0-0.9s0-0.6,0-0.9s0-0.6,0-0.9
		c0-0.3,0-0.6,0-0.9c0-0.3,0-0.6,0-0.9c-0.1,0-0.2,0-0.3,0c-4.1,0-8.2,0-12.3,0c-0.3,0-0.2,0-0.3,0.2c-1.1,3-3.8,5.2-7,5.7
		c-3.2,0.5-6-0.4-8.3-2.7c-0.9-0.9-1.5-1.9-1.9-3c0-0.1,0-0.1-0.1-0.2c0,0,0,0,0-0.1c2.9,0,5.8,0,8.7,0c0-2,0-4.1,0-6.1c0,0,0,0,0,0
		c0,0,0,0,0,0c0,0,0,0,0,0c0,0,0,0-0.1,0c-2.8,0-5.7,0-8.5,0c0,0,0,0-0.1,0c0-0.1,0-0.2,0.1-0.2c0.4-1,1-2,1.7-2.8
		c1.2-1.3,2.6-2.2,4.3-2.7c0.6-0.2,1.3-0.3,1.9-0.3c2.1-0.2,4.1,0.4,5.9,1.6c1.6,1.1,2.7,2.5,3.4,4.3c0.1,0.2,0,0.2,0.3,0.2
		c4.1,0,8.2,0,12.3,0c0.1,0,0.2,0,0.3,0c0-2.1,0-4.1,0-6.1c2.2,0,4.4,0,6.6,0C52.9,15.5,50.5,33.4,50.4,33.7z"/>
	<path d="M59.3,33.7c-2.1,0-4.1,0-6.2,0c0.8-6.1,1.6-12.2,2.4-18.3c2.1,0,4.1,0,6.2,0C60.9,21.4,60.1,27.5,59.3,33.7z"/>
	<path d="M63.6,19.8c0.3,0.3,0.6,0.5,0.9,0.7c0.5,0.4,0.9,0.8,1.4,1.2C66,21.8,66,21.9,66,22c0,1.8,0,3.7,0,5.5c0,0.1,0,0.2-0.1,0.3
		c-1.3,0.9-2.5,1.7-3.8,2.6c0,0-0.1,0-0.2,0.1C62.5,26.9,63,23.4,63.6,19.8z"/>
</g>
</svg>
