<?xml version="1.0" encoding="utf-8"?>
<!-- Generator: Adobe Illustrator 16.0.0, SVG Export Plug-In . SVG Version: 6.00 Build 0)  -->
<!DOCTYPE svg PUBLIC "-//W3C//DTD SVG 1.1//EN" "http://www.w3.org/Graphics/SVG/1.1/DTD/svg11.dtd">
<svg version="1.1" id="Layer_1" xmlns="http://www.w3.org/2000/svg" xmlns:xlink="http://www.w3.org/1999/xlink" x="0px" y="0px"
	 width="612px" height="510px" viewBox="0 142.503 612 510" enable-background="new 0 142.503 612 510" xml:space="preserve">
<path fill="#FFFFFF" d="M406.146,270.217c-50.073-63.982-141.873-102-236.455-76.964c-49.146,12.982-89.945,40.8-121.473,80.673
	C16.691,314.726,0,361.089,0,412.089c0,49.146,13.909,94.582,43.582,134.455c30.6,41.728,69.545,69.545,119.618,84.382
	c94.582,28.745,190.091-7.418,243.872-74.182c-22.254-17.618-44.509-36.164-66.764-53.782
	c-26.891,31.527-60.272,49.146-101.072,51.928c-40.8,2.781-76.964-10.2-106.636-38.019c-58.418-52.854-62.127-140.945-10.2-198.437
	c25.964-29.672,59.346-45.436,99.218-47.291c47.291-1.855,87.164,16.691,117.764,51.927L406.146,270.217z M467.346,498.325
	c0.927-2.781,22.254-168.763,22.254-169.69H428.4v56.563H311.563c-2.781,0-1.854,0-2.781-1.854
	c-6.491-16.691-16.691-29.673-31.528-39.873c-16.691-11.127-34.309-15.764-54.709-14.836c-6.491,0-12.055,1.854-17.618,2.782
	c-15.764,4.636-28.746,12.982-39.873,25.037c-6.491,7.418-12.055,16.691-15.764,25.963c0,0.927,0,1.854-0.927,1.854h80.672v56.564
	h-80.672v0.927c0,0.928,0,0.928,0.927,1.854c3.709,10.2,10.2,20.4,17.618,27.818c21.327,21.327,47.291,30.601,76.963,25.036
	c29.673-4.636,54.709-25.036,64.91-52.854c0.927-1.854,0-1.854,2.781-1.854H428.4v58.419
	C442.309,498.325,454.363,498.325,467.346,498.325L467.346,498.325z M549.873,498.325l22.254-169.69h-57.49l-22.255,169.69H549.873z
	 M589.745,369.435c-4.636,33.382-10.2,65.837-14.836,99.219c0.927,0,0.927-0.928,1.854-0.928
	c12.055-8.346,23.182-15.764,35.236-24.109c0.928-0.927,0.928-0.927,0.928-2.781v-51c0-0.927,0-1.854-1.855-2.782
	c-4.636-3.709-8.345-7.418-12.981-11.127C595.309,374.071,592.527,372.217,589.745,369.435L589.745,369.435z"/>
<path fill="#FFFFFF" d="M406.146,270.217c-22.255,17.618-44.509,35.236-66.764,53.782c-30.6-36.164-70.473-54.709-117.764-52.854
	c-39.873,1.854-73.254,17.618-99.218,47.291c-51.927,57.491-48.218,145.582,9.273,198.437c29.672,27.818,65.836,40.8,106.636,38.019
	c40.8-2.782,74.182-20.4,101.073-51.928c22.255,17.618,44.509,36.164,66.764,53.782c-53.782,66.764-148.364,102.927-243.873,74.182
	c-49.146-14.837-89.019-43.582-119.618-84.382C13.909,505.744,0,461.234,0,412.089c0-51,16.691-97.363,48.218-138.163
	c31.527-39.873,72.327-67.691,121.473-80.673C264.272,168.217,356.072,206.235,406.146,270.217z M467.346,498.325H428.4v-58.418
	H311.563c-2.781,0-1.854,0-2.781,1.854c-10.2,27.818-35.237,48.219-64.91,52.854c-29.672,4.637-55.636-3.709-76.963-25.036
	c-8.346-8.346-13.909-17.618-17.618-27.818c0-0.927,0-0.927-0.927-1.854v-0.927h80.672v-56.564h-80.672c0-0.927,0-1.854,0.927-1.854
	c3.709-9.273,9.272-18.545,15.764-25.963c11.127-12.055,24.109-20.4,39.873-25.037c5.563-1.854,12.055-2.782,17.618-2.782
	c19.473-1.854,38.018,3.709,54.709,14.836c14.836,10.2,25.037,23.182,31.528,39.873c0.927,1.854,0,1.854,2.781,1.854H428.4V326.78
	H489.6C490.527,329.562,468.272,495.544,467.346,498.325L467.346,498.325z M549.873,498.325h-57.491l22.255-169.69h57.49
	C564.709,384.271,557.291,440.835,549.873,498.325z M589.745,369.435c2.782,2.782,5.563,4.637,8.346,6.491
	c4.637,3.709,8.346,7.418,12.981,11.127C612,387.98,612,388.908,612,389.835v51c0,0.927,0,1.854-0.928,2.781
	c-12.055,8.346-23.182,15.764-35.236,24.109c0,0-0.927,0-1.854,0.928C579.545,435.271,584.182,402.816,589.745,369.435
	L589.745,369.435z"/>
</svg>
