<?xml version="1.0" encoding="utf-8"?>
<!-- Generator: Adobe Illustrator 17.1.0, SVG Export Plug-In . SVG Version: 6.00 Build 0)  -->
<!DOCTYPE svg PUBLIC "-//W3C//DTD SVG 1.1//EN" "http://www.w3.org/Graphics/SVG/1.1/DTD/svg11.dtd">
<svg version="1.1" id="Layer_1" xmlns="http://www.w3.org/2000/svg" xmlns:xlink="http://www.w3.org/1999/xlink" x="0px" y="0px"
	 viewBox="64.3 0 372.5 275" enable-background="new 64.3 0 372.5 275" xml:space="preserve">
<path fill="#FFFFFF" d="M310.6,51.1c-30.3-38.7-85.9-61.7-143.1-46.6c-29.7,7.9-54.4,24.7-73.5,48.8C74.9,78,64.8,106.1,64.8,136.9
	c0,29.7,8.4,57.2,26.4,81.4c18.5,25.3,42.1,42.1,72.4,51.1c57.2,17.4,115.1-4.5,147.6-44.9c-13.5-10.7-26.9-21.9-40.4-32.6
	c-16.3,19.1-36.5,29.7-61.2,31.4s-46.6-6.2-64.5-23c-35.4-32-37.6-85.3-6.2-120.1c15.7-18,35.9-27.5,60.1-28.6
	c28.6-1.1,52.8,10.1,71.3,31.4L310.6,51.1z M347.7,189.1c0.6-1.7,13.5-102.1,13.5-102.7h-37v34.2h-70.7c-1.7,0-1.1,0-1.7-1.1
	c-3.9-10.1-10.1-18-19.1-24.1c-10.1-6.7-20.8-9.5-33.1-9c-3.9,0-7.3,1.1-10.7,1.7c-9.5,2.8-17.4,7.9-24.1,15.2
	c-3.9,4.5-7.3,10.1-9.5,15.7c0,0.6,0,1.1-0.6,1.1h48.8v34.2h-48.8v0.6c0,0.6,0,0.6,0.6,1.1c2.2,6.2,6.2,12.3,10.7,16.8
	c12.9,12.9,28.6,18.5,46.6,15.2c18-2.8,33.1-15.2,39.3-32c0.6-1.1,0-1.1,1.7-1.1h70.7v35.4C332.5,189.1,339.8,189.1,347.7,189.1
	L347.7,189.1z M397.6,189.1l13.5-102.7h-34.8l-13.5,102.7H397.6z M421.7,111.1c-2.8,20.2-6.2,39.8-9,60.1c0.6,0,0.6-0.6,1.1-0.6
	c7.3-5.1,14-9.5,21.3-14.6c0.6-0.6,0.6-0.6,0.6-1.7v-30.9c0-0.6,0-1.1-1.1-1.7c-2.8-2.2-5.1-4.5-7.9-6.7
	C425.1,113.9,423.4,112.8,421.7,111.1L421.7,111.1z"/>
<path fill="#FFFFFF" d="M310.6,51.1c-13.5,10.7-26.9,21.3-40.4,32.6c-18.5-21.9-42.7-33.1-71.3-32c-24.1,1.1-44.3,10.7-60.1,28.6
	c-31.4,34.8-29.2,88.1,5.6,120.1c18,16.8,39.8,24.7,64.5,23c24.7-1.7,44.9-12.3,61.2-31.4c13.5,10.7,26.9,21.9,40.4,32.6
	c-32.6,40.4-89.8,62.3-147.6,44.9c-29.7-9-53.9-26.4-72.4-51.1c-17.4-24.7-25.8-51.6-25.8-81.4c0-30.9,10.1-58.9,29.2-83.6
	c19.1-24.1,43.8-41,73.5-48.8C224.7-10.7,280.3,12.3,310.6,51.1z M347.7,189.1h-23.6v-35.4h-70.7c-1.7,0-1.1,0-1.7,1.1
	c-6.2,16.8-21.3,29.2-39.3,32s-33.7-2.2-46.6-15.2c-5.1-5.1-8.4-10.7-10.7-16.8c0-0.6,0-0.6-0.6-1.1v-0.6h48.8V119h-48.8
	c0-0.6,0-1.1,0.6-1.1c2.2-5.6,5.6-11.2,9.5-15.7c6.7-7.3,14.6-12.3,24.1-15.2c3.4-1.1,7.3-1.7,10.7-1.7c11.8-1.1,23,2.2,33.1,9
	c9,6.2,15.2,14,19.1,24.1c0.6,1.1,0,1.1,1.7,1.1h70.7V85.3h37C361.7,87,348.2,187.4,347.7,189.1L347.7,189.1z M397.6,189.1h-34.8
	l13.5-102.7h34.8C406.6,120.1,402.1,154.3,397.6,189.1z M421.7,111.1c1.7,1.7,3.4,2.8,5.1,3.9c2.8,2.2,5.1,4.5,7.9,6.7
	c0.6,0.6,0.6,1.1,0.6,1.7v30.9c0,0.6,0,1.1-0.6,1.7c-7.3,5.1-14,9.5-21.3,14.6c0,0-0.6,0-1.1,0.6C415.6,151,418.4,131.3,421.7,111.1
	L421.7,111.1z"/>
</svg>
