<?xml version="1.0" encoding="utf-8"?>
<!-- Generator: Adobe Illustrator 16.0.0, SVG Export Plug-In . SVG Version: 6.00 Build 0)  -->
<!DOCTYPE svg PUBLIC "-//W3C//DTD SVG 1.1//EN" "http://www.w3.org/Graphics/SVG/1.1/DTD/svg11.dtd">
<svg version="1.1" xmlns="http://www.w3.org/2000/svg" xmlns:xlink="http://www.w3.org/1999/xlink" x="0px" y="0px"
	 width="137.834px" height="50.333px" viewBox="0 -15.167 137.834 50.333" enable-background="new 0 -15.167 137.834 50.333"
	 xml:space="preserve">
<g id="Layer_1">
	<g>
		<path d="M90.332-10.666v-4.501h4.5v4.501H90.332L90.332-10.666z M97.082-10.666v-4.501h4.499v4.501H97.082L97.082-10.666z
			 M103.831-10.666v-4.501h4.501v4.501H103.831L103.831-10.666z M90.332-3.917v-4.499h4.5v4.499H90.332L90.332-3.917z M97.082-3.917
			v-4.499h4.499v4.499H97.082L97.082-3.917z M103.831-3.917v-4.499h4.501v4.499H103.831L103.831-3.917z M90.332,2.833v-4.5h4.5v4.5
			H90.332L90.332,2.833z M97.082,2.833v-4.5h4.499v4.5H97.082L97.082,2.833z M103.831,2.833v-4.5h4.501v4.5H103.831L103.831,2.833z"
			/>
	</g>
	<path fill="#E5E5E5" d="M75.311,4.833L89.279-9.143c0.643-0.64,1.037-1.52,1.037-2.494c0-1.95-1.58-3.53-3.53-3.53
		c-0.974,0-1.856,0.396-2.496,1.034L70.316-0.159L56.344-14.132c-0.64-0.638-1.523-1.034-2.496-1.034c-1.949,0-3.53,1.58-3.53,3.53
		c0,0.974,0.394,1.854,1.036,2.496l13.97,13.974l-13.97,13.974c-0.644,0.64-1.037,1.522-1.037,2.495c0,1.95,1.58,3.53,3.533,3.53
		c0.973,0,1.855-0.395,2.496-1.035L70.316,9.826L84.29,23.798c0.64,0.64,1.522,1.035,2.496,1.035c1.95,0,3.53-1.58,3.53-3.53
		c0-0.974-0.396-1.855-1.035-2.496L75.311,4.833L75.311,4.833z"/>
	<path fill="#E5E5E5" d="M49.4,30.91l-3.49,3.49c-0.75,0.75-1.746,0.75-2.495,0l-7.235-7.233c-0.748-0.75-0.748-1.747,0-2.495
		l0.25-0.253l-3.244-3.244l-0.25-0.25c-3.492,2.745-7.983,4.492-12.724,4.492C8.982,25.668,0,16.438,0,5.21S8.982-15,20.21-15
		S40.42-6.018,40.42,5.21c0,4.74-1.747,9.23-4.492,12.725c0,0,0.25,0,0.25,0.25l3.243,3.242l0.253-0.25
		c0.75-0.747,1.745-0.747,2.495,0l7.233,7.237c0.75,0.748,0.75,1.745,0,2.495L49.4,30.91z M20.21-7.266
		c-6.987,0-12.475,5.488-12.475,12.475s5.488,12.474,12.475,12.474c6.985,0,12.476-5.486,12.476-12.474
		C32.686-1.528,27.196-7.266,20.21-7.266z"/>
</g>
<g id="Creative_Commons_License" display="none">
	
		<text id="Creative_Commons_License_1_" transform="matrix(1 0 0 1 -197.5 315.5439)" display="inline" font-family="'MyriadPro-Regular'" font-size="12">With assets by Brankic1979 / CC BY</text>
</g>
</svg>
