<svg xmlns="http://www.w3.org/2000/svg" width="127.542" height="50.25" viewBox="0 -15.333 127.542 50.25" enable-background="new 0 -15.333 127.542 50.25"><path d="M90.332-10.666v-4.5h4.5v4.5h-4.5zm6.75 0v-4.5h4.5v4.5h-4.5zm6.75 0v-4.5h4.5v4.5h-4.5zm-13.5 6.75v-4.5h4.5v4.5h-4.5zm6.75 0v-4.5h4.5v4.5h-4.5zm6.75 0v-4.5h4.5v4.5h-4.5zm-13.5 6.75v-4.5h4.5v4.5h-4.5zm6.75 0v-4.5h4.5v4.5h-4.5zm6.75 0v-4.5h4.5v4.5h-4.5z"/><path fill="#E5E5E5" d="M90.332 10.17v-4.5h4.5v4.5h-4.5zm6.75 0v-4.5h4.5v4.5h-4.5zm6.75 0v-4.5h4.5v4.5h-4.5zm-13.5 6.75v-4.5h4.5v4.5h-4.5zm6.75 0v-4.5h4.5v4.5h-4.5zm6.75 0v-4.5h4.5v4.5h-4.5zm-13.5 6.75v-4.5h4.5v4.5h-4.5zm6.75 0v-4.5h4.5v4.5h-4.5zm6.75 0v-4.5h4.5v4.5h-4.5zM75.31 4.833L89.28-9.143c.642-.64 1.035-1.52 1.035-2.494 0-1.95-1.58-3.53-3.53-3.53-.974 0-1.854.396-2.495 1.034L70.315-.16l-13.97-13.97c-.64-.638-1.524-1.034-2.497-1.034-1.95 0-3.53 1.58-3.53 3.53 0 .974.394 1.854 1.036 2.496l13.97 13.974-13.97 13.974c-.644.64-1.037 1.522-1.037 2.495 0 1.95 1.58 3.53 3.533 3.53.973 0 1.855-.395 2.496-1.035l13.97-13.972 13.974 13.97c.64.64 1.52 1.035 2.496 1.035 1.95 0 3.53-1.58 3.53-3.53 0-.974-.397-1.854-1.036-2.496L75.31 4.833zM49.4 30.91l-3.49 3.49c-.75.75-1.746.75-2.495 0l-7.235-7.233c-.748-.75-.748-1.747 0-2.495l.25-.253-3.244-3.246-.25-.25c-3.492 2.745-7.983 4.492-12.724 4.492C8.982 25.666 0 16.436 0 5.21S8.982-15 20.21-15 40.42-6.018 40.42 5.21c0 4.74-1.747 9.23-4.492 12.725 0 0 .25 0 .25.25l3.243 3.242.255-.25c.75-.747 1.745-.747 2.495 0l7.232 7.238c.75.748.75 1.744 0 2.494H49.4zM20.21-7.265c-6.987 0-12.475 5.488-12.475 12.475S13.223 17.68 20.21 17.68c6.985 0 12.476-5.486 12.476-12.474 0-6.738-5.49-12.476-12.476-12.476v.002zM127.132 21.557l-2.605-2.608c-.27-.27-.63-.27-.9 0l-.09.09-1.17-1.17c0-.09-.09-.09-.09-.09.99-1.258 1.62-2.875 1.62-4.583 0-4.045-3.236-7.28-7.282-7.28-4.044 0-7.28 3.235-7.28 7.28 0 4.044 3.236 7.37 7.28 7.28 1.71 0 3.327-.63 4.586-1.62l.09.09 1.17 1.17-.09.092c-.27.268-.27.627 0 .897l2.605 2.606c.27.27.628.27.898 0l1.258-1.257h.002c.27-.27.27-.63 0-.9zm-10.518-3.867c-2.517 0-4.493-1.977-4.493-4.494 0-2.517 1.978-4.494 4.494-4.494 2.518 0 4.495 2.067 4.495 4.494 0 2.518-1.98 4.494-4.496 4.494z"/></svg>