<svg xmlns="http://www.w3.org/2000/svg" width="100" height="50" viewBox="0 -15 100 50" enable-background="new 0 -15 100 50"><path fill="#E5E5E5" d="M74.894 5l13.97-13.976c.642-.64 1.036-1.52 1.036-2.494 0-1.95-1.58-3.53-3.53-3.53-.974 0-1.856.396-2.496 1.034L69.9.008 55.928-13.966c-.64-.638-1.524-1.034-2.496-1.034-1.95 0-3.53 1.58-3.53 3.53 0 .974.393 1.855 1.035 2.496L64.907 5l-13.97 13.974c-.643.64-1.036 1.522-1.036 2.495 0 1.95 1.58 3.53 3.532 3.53.973 0 1.856-.395 2.496-1.035L69.9 9.992l13.974 13.973c.64.64 1.522 1.035 2.496 1.035 1.95 0 3.53-1.58 3.53-3.53 0-.974-.395-1.856-1.035-2.496L74.895 5z" enable-background="new"/><path fill="#E5E5E5" d="M49.4 30.91L45.91 34.4c-.75.75-1.746.75-2.495 0l-7.235-7.233c-.748-.75-.748-1.747 0-2.495l.25-.253-3.244-3.244-.25-.25c-3.492 2.745-7.983 4.492-12.724 4.492C8.982 25.668 0 16.438 0 5.21 0-6.018 8.982-15 20.21-15S40.42-6.018 40.42 5.21c0 4.74-1.747 9.23-4.492 12.725 0 0 .25 0 .25.25l3.243 3.242.253-.25c.75-.747 1.745-.747 2.495 0l7.233 7.237c.75.748.75 1.745 0 2.495zM20.21-7.266c-6.987 0-12.475 5.488-12.475 12.475 0 6.987 5.488 12.474 12.475 12.474 6.985 0 12.476-5.486 12.476-12.474 0-6.737-5.49-12.475-12.476-12.475z"/></svg>