<?xml version="1.0" encoding="utf-8"?>
<!-- Generator: Adobe Illustrator 17.1.0, SVG Export Plug-In . SVG Version: 6.00 Build 0)  -->
<!DOCTYPE svg PUBLIC "-//W3C//DTD SVG 1.1//EN" "http://www.w3.org/Graphics/SVG/1.1/DTD/svg11.dtd">
<svg version="1.1" xmlns="http://www.w3.org/2000/svg" xmlns:xlink="http://www.w3.org/1999/xlink" x="0px" y="0px" width="20px"
	 height="20px" viewBox="0 0 20 20" enable-background="new 0 0 20 20" xml:space="preserve">
<g id="Layer_1">
	<path d="M19.8,18.4l-1.4,1.4c-0.3,0.3-0.7,0.3-1,0l-2.9-2.9c-0.3-0.3-0.3-0.7,0-1l0.1-0.1l-1.3-1.3c0,0-0.1-0.1-0.1-0.1
		c-1.4,1.1-3.2,1.8-5.1,1.8C3.6,16.3,0,12.6,0,8.1C0,3.6,3.6,0,8.1,0c4.5,0,8.1,3.6,8.1,8.1c0,1.9-0.7,3.7-1.8,5.1
		c0,0,0.1,0,0.1,0.1l1.3,1.3l0.1-0.1c0.3-0.3,0.7-0.3,1,0l2.9,2.9C20.1,17.7,20.1,18.1,19.8,18.4L19.8,18.4z M8.1,3.1
		c-2.8,0-5,2.2-5,5s2.2,5,5,5s5-2.2,5-5C13.1,5.4,10.9,3.1,8.1,3.1L8.1,3.1z"/>
</g>
<g id="Creative_Commons_License" display="none">
	
		<text id="Creative_Commons_License_1_" transform="matrix(1 0 0 1 2 470.0439)" display="inline" font-family="'MyriadPro-Regular'" font-size="12">With assets by Budi Tanrim / CC BY</text>
</g>
</svg>
