<?xml version="1.0" encoding="utf-8"?>
<!-- Generator: Adobe Illustrator 16.0.0, SVG Export Plug-In . SVG Version: 6.00 Build 0)  -->
<!DOCTYPE svg PUBLIC "-//W3C//DTD SVG 1.1//EN" "http://www.w3.org/Graphics/SVG/1.1/DTD/svg11.dtd">
<svg version="1.1" id="Layer_1" xmlns="http://www.w3.org/2000/svg" xmlns:xlink="http://www.w3.org/1999/xlink" x="0px" y="0px"
	 width="100px" height="50px" viewBox="0 -15 100 50" enable-background="new 0 -15 100 50" xml:space="preserve">
<g id="Layer_1_1_">
	<g id="CLOSE_1_" enable-background="new    ">
		<g id="CLOSE">
			<g>
				<path fill="#E5E5E5" d="M81.079,9.95L98.51-7.484c0.799-0.797,1.291-1.897,1.291-3.111c0-2.433-1.971-4.404-4.404-4.404
					c-1.214,0-2.315,0.495-3.114,1.29L74.851,3.723L57.42-13.71c-0.799-0.795-1.9-1.29-3.114-1.29c-2.434,0-4.405,1.971-4.405,4.404
					c0,1.214,0.491,2.314,1.292,3.114L68.623,9.95L51.192,27.382c-0.801,0.799-1.292,1.9-1.292,3.113
					c0,2.435,1.972,4.405,4.405,4.405c1.214,0,2.315-0.492,3.114-1.291l17.431-17.432l17.432,17.432
					c0.799,0.799,1.9,1.291,3.114,1.291c2.434,0,4.404-1.971,4.404-4.405c0-1.213-0.492-2.314-1.291-3.113L81.079,9.95z"/>
			</g>
		</g>
	</g>
	<path fill="#E5E5E5" d="M49.401,30.909l-3.493,3.492c-0.75,0.748-1.746,0.748-2.495,0l-7.235-7.234
		c-0.748-0.75-0.748-1.747,0-2.495l0.25-0.253l-3.244-3.243l-0.249-0.251c-3.493,2.746-7.984,4.493-12.725,4.493
		C8.982,25.669,0,16.437,0,5.21C0-6.018,8.982-15,20.21-15S40.42-6.018,40.42,5.21c0,4.74-1.747,9.231-4.492,12.725
		c0,0,0.25,0,0.25,0.249l3.243,3.243l0.252-0.249c0.75-0.748,1.745-0.748,2.495,0l7.233,7.236
		C50.15,29.162,50.15,30.159,49.401,30.909z M20.21-7.265c-6.987,0-12.475,5.488-12.475,12.475c0,6.987,5.488,12.474,12.475,12.474
		c6.985,0,12.476-5.486,12.476-12.474C32.686-1.527,27.195-7.265,20.21-7.265z"/>
</g>
<g id="Creative_Commons_License" display="none">
	
		<text id="Creative_Commons_License_1_" transform="matrix(1 0 0 1 -237.5 270.5439)" display="inline" font-family="'MyriadPro-Regular'" font-size="12">With assets by Piotr Kwiatkowski / CC BY</text>
</g>
</svg>
