<svg xmlns="http://www.w3.org/2000/svg" width="137.834" height="50.333" viewBox="0 -15.167 137.834 50.333" enable-background="new 0 -15.167 137.834 50.333"><g><path d="M90.332-10.666v-4.5h4.5v4.5h-4.5zm6.75 0v-4.5h4.5v4.5h-4.5zm6.75 0v-4.5h4.5v4.5h-4.5zm-13.5 6.75v-4.5h4.5v4.5h-4.5zm6.75 0v-4.5h4.5v4.5h-4.5zm6.75 0v-4.5h4.5v4.5h-4.5zm-13.5 6.75v-4.5h4.5v4.5h-4.5zm6.75 0v-4.5h4.5v4.5h-4.5zm6.75 0v-4.5h4.5v4.5h-4.5z"/><path fill="#E5E5E5" d="M75.31 4.833L89.28-9.143c.642-.64 1.036-1.52 1.036-2.494 0-1.95-1.58-3.53-3.53-3.53-.974 0-1.856.396-2.496 1.034L70.316-.16 56.344-14.13c-.64-.638-1.523-1.034-2.496-1.034-1.95 0-3.53 1.58-3.53 3.53 0 .974.394 1.854 1.036 2.496l13.97 13.974-13.97 13.974c-.644.64-1.037 1.522-1.037 2.495 0 1.95 1.58 3.53 3.533 3.53.973 0 1.855-.395 2.496-1.035l13.97-13.972L84.29 23.798c.64.64 1.522 1.035 2.496 1.035 1.95 0 3.53-1.58 3.53-3.53 0-.974-.396-1.855-1.035-2.496L75.31 4.833zM49.4 30.91l-3.49 3.49c-.75.75-1.746.75-2.495 0l-7.235-7.233c-.748-.75-.748-1.747 0-2.495l.25-.253-3.244-3.245-.25-.25c-3.492 2.745-7.983 4.492-12.724 4.492C8.982 25.667 0 16.437 0 5.21S8.982-15 20.21-15 40.42-6.018 40.42 5.21c0 4.74-1.747 9.23-4.492 12.725 0 0 .25 0 .25.25l3.243 3.242.254-.25c.75-.747 1.745-.747 2.495 0l7.232 7.237c.75.748.75 1.745 0 2.495H49.4zM20.21-7.266c-6.987 0-12.475 5.488-12.475 12.475s5.488 12.473 12.475 12.473c6.985 0 12.476-5.486 12.476-12.474 0-6.738-5.49-12.476-12.476-12.476z"/></g></svg>