<?xml version="1.0" encoding="utf-8"?>
<!-- Generator: Adobe Illustrator 16.0.0, SVG Export Plug-In . SVG Version: 6.00 Build 0)  -->
<!DOCTYPE svg PUBLIC "-//W3C//DTD SVG 1.1//EN" "http://www.w3.org/Graphics/SVG/1.1/DTD/svg11.dtd">
<svg version="1.1" id="Layer_1" xmlns="http://www.w3.org/2000/svg" xmlns:xlink="http://www.w3.org/1999/xlink" x="0px" y="0px"
	 width="127.542px" height="50.25px" viewBox="0 -15.333 127.542 50.25" enable-background="new 0 -15.333 127.542 50.25"
	 xml:space="preserve">
<g>
	<path d="M90.332-10.666v-4.5h4.5v4.5H90.332z M97.082-10.666v-4.5h4.5v4.5H97.082z M103.832-10.666v-4.5h4.5v4.5H103.832z
		 M90.332-3.916v-4.5h4.5v4.5H90.332z M97.082-3.916v-4.5h4.5v4.5H97.082z M103.832-3.916v-4.5h4.5v4.5H103.832z M90.332,2.834v-4.5
		h4.5v4.5H90.332z M97.082,2.834v-4.5h4.5v4.5H97.082z M103.832,2.834v-4.5h4.5v4.5H103.832z"/>
	<path fill="#E5E5E5" d="M90.332,10.17v-4.5h4.5v4.5H90.332z M97.082,10.17v-4.5h4.5v4.5H97.082z M103.832,10.17v-4.5h4.5v4.5
		H103.832z M90.332,16.92v-4.5h4.5v4.5H90.332z M97.082,16.92v-4.5h4.5v4.5H97.082z M103.832,16.92v-4.5h4.5v4.5H103.832z
		 M90.332,23.67v-4.5h4.5v4.5H90.332z M97.082,23.67v-4.5h4.5v4.5H97.082z M103.832,23.67v-4.5h4.5v4.5H103.832z"/>
	<path fill="#E5E5E5" d="M75.31,4.833L89.28-9.143c0.642-0.64,1.035-1.52,1.035-2.494c0-1.95-1.58-3.53-3.529-3.53
		c-0.975,0-1.855,0.396-2.496,1.034L70.315-0.16L56.344-14.13c-0.64-0.638-1.523-1.034-2.496-1.034c-1.95,0-3.53,1.58-3.53,3.53
		c0,0.974,0.394,1.854,1.036,2.496l13.97,13.974L51.354,18.81c-0.644,0.64-1.037,1.522-1.037,2.495c0,1.95,1.58,3.53,3.533,3.53
		c0.973,0,1.855-0.395,2.496-1.035L70.315,9.828l13.975,13.97c0.641,0.64,1.521,1.035,2.496,1.035c1.949,0,3.529-1.58,3.529-3.53
		c0-0.974-0.396-1.854-1.035-2.496L75.31,4.833z M49.4,30.911L45.91,34.4c-0.75,0.75-1.746,0.75-2.495,0l-7.235-7.233
		c-0.748-0.75-0.748-1.747,0-2.495l0.25-0.253l-3.244-3.245l-0.25-0.25c-3.492,2.745-7.983,4.492-12.724,4.492
		C8.982,25.667,0,16.437,0,5.21S8.982-15,20.21-15S40.42-6.018,40.42,5.21c0,4.74-1.747,9.23-4.492,12.725c0,0,0.25,0,0.25,0.25
		l3.243,3.242l0.254-0.25c0.75-0.747,1.745-0.747,2.495,0l7.232,7.238c0.75,0.748,0.75,1.744,0,2.494H49.4V30.911z M20.21-7.266
		c-6.987,0-12.475,5.488-12.475,12.475s5.488,12.473,12.475,12.473c6.985,0,12.476-5.486,12.476-12.474
		c0-6.738-5.49-12.476-12.476-12.476V-7.266z"/>
</g>
<path fill="#E5E5E5" d="M127.132,21.557l-2.605-2.608c-0.271-0.269-0.629-0.269-0.899,0l-0.092,0.09l-1.168-1.168
	c0-0.09-0.09-0.09-0.09-0.09c0.989-1.259,1.618-2.876,1.618-4.584c0-4.045-3.235-7.281-7.281-7.281c-4.044,0-7.28,3.236-7.28,7.281
	c0,4.044,3.236,7.369,7.281,7.28c1.708,0,3.326-0.63,4.585-1.619l0.09,0.09l1.169,1.169l-0.091,0.092
	c-0.27,0.269-0.27,0.628,0,0.898l2.606,2.606c0.27,0.27,0.628,0.27,0.898,0l1.258-1.257v-0.001h0.001
	C127.401,22.186,127.401,21.826,127.132,21.557z M116.614,17.69c-2.517,0-4.493-1.977-4.493-4.494c0-2.517,1.977-4.494,4.493-4.494
	v0c2.518,0,4.495,2.067,4.495,4.494C121.109,15.714,119.131,17.69,116.614,17.69z"/>
</svg>
