<?xml version="1.0" encoding="utf-8"?>
<!-- Generator: Adobe Illustrator 16.0.0, SVG Export Plug-In . SVG Version: 6.00 Build 0)  -->
<!DOCTYPE svg PUBLIC "-//W3C//DTD SVG 1.1//EN" "http://www.w3.org/Graphics/SVG/1.1/DTD/svg11.dtd">
<svg version="1.1" id="Layer_1" xmlns="http://www.w3.org/2000/svg" xmlns:xlink="http://www.w3.org/1999/xlink" x="0px" y="0px"
	 width="100px" height="50px" viewBox="0 -15 100 50" enable-background="new 0 -15 100 50" xml:space="preserve">
<g id="CLOSE_1_" enable-background="new    ">
	<g id="CLOSE">
		<g>
			<path fill="#E5E5E5" d="M74.894,5L88.865-8.976c0.641-0.639,1.035-1.521,1.035-2.494c0-1.95-1.58-3.53-3.53-3.53
				c-0.974,0-1.856,0.396-2.496,1.034L69.9,0.008L55.928-13.966C55.288-14.604,54.404-15,53.432-15c-1.951,0-3.531,1.58-3.531,3.53
				c0,0.974,0.394,1.855,1.036,2.496L64.908,5L50.937,18.974c-0.643,0.64-1.036,1.522-1.036,2.495C49.9,23.42,51.48,25,53.432,25
				c0.973,0,1.856-0.395,2.496-1.035L69.9,9.992l13.974,13.973C84.514,24.605,85.396,25,86.37,25c1.95,0,3.53-1.58,3.53-3.531
				c0-0.973-0.395-1.855-1.035-2.495L74.894,5z"/>
		</g>
	</g>
</g>
<path fill="#E5E5E5" d="M49.401,30.909l-3.493,3.492c-0.75,0.748-1.746,0.748-2.495,0l-7.235-7.234c-0.748-0.75-0.748-1.747,0-2.495
	l0.25-0.253l-3.244-3.243l-0.249-0.251c-3.493,2.746-7.984,4.493-12.725,4.493C8.982,25.669,0,16.437,0,5.21
	C0-6.018,8.982-15,20.21-15S40.42-6.018,40.42,5.21c0,4.74-1.747,9.231-4.492,12.725c0,0,0.25,0,0.25,0.249l3.243,3.243l0.252-0.249
	c0.75-0.748,1.745-0.748,2.495,0l7.233,7.236C50.15,29.162,50.15,30.159,49.401,30.909z M20.21-7.265
	c-6.987,0-12.475,5.488-12.475,12.475c0,6.987,5.488,12.474,12.475,12.474c6.985,0,12.476-5.486,12.476-12.474
	C32.686-1.527,27.195-7.265,20.21-7.265z"/>
<g id="Creative_Commons_License" display="none">
	
		<text id="Creative_Commons_License_1_" transform="matrix(1 0 0 1 -237.5 270.5439)" display="inline" font-family="'MyriadPro-Regular'" font-size="12">With assets by Piotr Kwiatkowski / CC BY</text>
</g>
</svg>
