<?xml version="1.0" encoding="utf-8"?>
<!-- Generator: Adobe Illustrator 16.0.0, SVG Export Plug-In . SVG Version: 6.00 Build 0)  -->
<!DOCTYPE svg PUBLIC "-//W3C//DTD SVG 1.1//EN" "http://www.w3.org/Graphics/SVG/1.1/DTD/svg11.dtd">
<svg version="1.1" id="Layer_1" xmlns="http://www.w3.org/2000/svg" xmlns:xlink="http://www.w3.org/1999/xlink" x="0px" y="0px"
	 width="20px" height="20px" viewBox="0 0 20 20" enable-background="new 0 0 20 20" xml:space="preserve">
<path d="M19.8,18.4L18.4,19.8c-0.301,0.3-0.7,0.3-1,0L14.5,16.9c-0.3-0.301-0.3-0.7,0-1l0.1-0.101l-1.3-1.3l-0.1-0.1
	c-1.4,1.1-3.2,1.8-5.1,1.8C3.6,16.3,0,12.6,0,8.1C0,3.6,3.6,0,8.1,0c4.5,0,8.1,3.6,8.1,8.1c0,1.9-0.7,3.7-1.8,5.1c0,0,0.1,0,0.1,0.1
	l1.3,1.3l0.101-0.1c0.3-0.3,0.699-0.3,1,0l2.899,2.9C20.1,17.7,20.1,18.1,19.8,18.4z M8.1,3.1c-2.8,0-5,2.2-5,5s2.2,5,5,5
	s5-2.199,5-5C13.1,5.4,10.9,3.1,8.1,3.1z"/>
</svg>
